<?xml version="1.0" ?><svg height="12197.0px" preserveAspectRatio="none" viewBox="0 0 1708.0 12197.0" width="1708.0px" xmlns="http://www.w3.org/2000/svg" xmlns:xlink="http://www.w3.org/1999/xlink"><g id="s20-20" transform="translate(20, 20)"><g transform="translate(-0.0, -0.0)"><defs><style>.cl0 {
    fill: #f4ee67
    }</style></defs><title>BackButton</title><g data-name="Layer 2" id="uid_0"><path class="cl0" d="M0 31L28 0l4 17L71 5v36l-33-4 8 30L0 31z" id="uid_1"/></g></g></g><g id="s20-107" transform="translate(20, 107.0)"><g transform="translate(-0.0, -0.0)"><defs><style>.cl1 {
    fill: #f9d128
    }</style></defs><title>Bell_1</title><g data-name="Layer 2" id="uid_2"><path class="cl1" d="M121.82 110c-6-14-17 3-24-43-1.32-27.06-17-36.7-27.53-40.12a15 15 0 1 0-18.38-.07C41.39 30.17 25.48 39.74 24.15 67c-7 46-18 29-24 43-3 16.8 38 26 60.84 26.07s63.79-9.28 60.83-26.07zm-61-85z" id="uid_3"/></g></g></g><g id="s20-264" transform="translate(20, 264.0)"><g transform="translate(-0.0, -0.0)"><defs><style>.cl2 {
    fill: #bfbfbf
    }</style></defs><title>Bell</title><g data-name="Layer 2" id="uid_4"><path class="cl2" d="M121.82 110c-6-14-17 3-24-43-1.32-27.06-17-36.7-27.53-40.12a15 15 0 1 0-18.38-.07C41.39 30.17 25.48 39.74 24.15 67c-7 46-18 29-24 43-3 16.8 38 26 60.84 26.07s63.79-9.28 60.83-26.07zm-61-85z" id="uid_5"/></g></g></g><g id="s20-421" transform="translate(20, 421.0)"><g transform="translate(-0.0, -0.0)"><style>.cl3 {
    fill: #f9d128;
    stroke: #000;
    stroke-width: 6;
    stroke-miterlimit: 10
    }</style><title>Bell_1</title><g id="uid_7"><path class="cl3" d="M118.8 108c-5.7-13.3-16.2 2.9-22.8-40.9-1.3-25.7-16.2-34.9-26.2-38.2a14.3 14.3 0 0 0 2.6-20c-4.8-6.2-13.8-7.4-20-2.6S45 20 49.8 26.3c.7 1 1.6 1.8 2.5 2.5C42.4 32 27.2 41.1 26 67.1 19.3 110.8 8.8 94.6 3.1 108 .2 124 39.2 132.7 61 132.8c21.7 0 60.7-8.9 57.8-24.8zm-58-80.9z" id="uid_8"/></g></g></g><g id="s20-578" transform="translate(20, 578.0)"><g transform="translate(-0.0, -0.0)"><defs><style>.cl4 {
    fill: #fff
    }</style></defs><title>Bell</title><g data-name="Layer 2" id="uid_9"><path class="cl4" d="M121.82 110c-6-14-17 3-24-43-1.32-27.06-17-36.7-27.53-40.12a15 15 0 1 0-18.38-.07C41.39 30.17 25.48 39.74 24.15 67c-7 46-18 29-24 43-3 16.8 38 26 60.84 26.07s63.79-9.28 60.83-26.07zm-61-85z" id="uid_10"/></g></g></g><g id="s20-735" transform="translate(20, 735.0)"><g transform="translate(-0.0, -0.0)"><defs><style>.cl5 {
    fill: none
    }
.cl6 {
    fill: #3c0e04
    }
.cl7 {
    fill: #e5965c
    }
.cl8 {
    clip-path: url(#uid_11)
    }
.cl9 {
    fill: #fff
    }</style><clipPath id="uid_11"><path class="cl5" d="M203 35c-36-28-72 2-81 37s-19 57-51 81c-18 24-47 68 22 106 61 28 112-80 112-80s76-107-2-144z"/></clipPath></defs><title>BrownBean</title><g data-name="Layer 2" id="uid_12"><g data-name="Layer 30" id="uid_13"><circle class="cl6" cx="146" cy="146" r="146"/><path class="cl7" d="M203 35c-36-28-72 2-81 37s-19 57-51 81c-18 24-47 68 22 106 61 28 112-80 112-80s76-107-2-144z"/><g class="cl8"><ellipse class="cl9" cx="94.5" cy="112.5" rx="40.5" ry="33.5" transform="rotate(-55.89 94.5 112.5)"/></g></g></g></g></g><g id="s20-1047" transform="translate(20, 1047.0)"><g transform="translate(-0.0, -0.0)"><defs><style>.cl10 {
    fill: #176294
    }</style></defs><title>ButtonPattern</title><g data-name="Layer 2" id="uid_14"><g id="uid_15"><path class="cl10" d="M0 0h52l-7 37L0 0zM130 13l-16 15 16 9V13zM35 169l33-52 20 52H35zM211 37l38 35 9-54-47 19zM291 128l-22 23h30l-8-23zM299 0l23 25 12-25h-35zM399 169l26-26 21 26h-47zM508 18l-32 38 49 16-17-54zM592 128l-20 41h60l-40-41zM638 92l-31 16 38 20-7-36z"/></g></g></g></g><g id="s20-1236" transform="translate(20, 1236.0)"><g transform="translate(-0.0, -0.0)"><defs><style>.cl11 {
    fill: #405e70
    }
.cl12 {
    fill: #fff
    }
.cl13 {
    fill: #fefffd
    }</style></defs><title>CopyIcon</title><g data-name="Layer 2" id="uid_16"><g id="uid_17"><rect class="cl11" height="113" rx="8.33" ry="8.33" width="113"/><rect class="cl12" height="59" rx="7.87" ry="7.87" width="48" x="38" y="33"/><path class="cl11" d="M44 39h36v47H44z"/><path class="cl13" d="M25 73h7V27h38v-7H30.51A5.51 5.51 0 0 0 25 25.51z"/></g></g></g></g><g id="s20-1369" transform="translate(20, 1369.0)"><g transform="translate(-0.0, -0.0)"><defs><style>.cl14 {
    fill: #f27575
    }</style></defs><title>Heart_1</title><g data-name="Layer 2" id="uid_18"><path class="cl14" d="M64.89 117.86c-136-91-19-147 0-102 19-45 136 11 0 102z" id="uid_19"/></g></g></g><g id="s20-1507" transform="translate(20, 1507.0)"><g transform="translate(-0.0, -0.0)"><defs><style>.cl15 {
    fill: #bfbfbf
    }</style></defs><title>Heart</title><g data-name="Layer 2" id="uid_20"><path class="cl15" d="M64.89 117.86c-136-91-19-147 0-102 19-45 136 11 0 102z" id="uid_21"/></g></g></g><g id="s20-1645" transform="translate(20, 1645.0)"><g transform="translate(-0.0, -0.0)"><style>.cl16 {
    fill: #f27575;
    stroke: #000;
    stroke-width: 6;
    stroke-miterlimit: 10
    }</style><title>Heart_1</title><g id="uid_23"><path class="cl16" d="M64.9 113.9c-126.6-84.7-17.7-136.9 0-95 17.7-41.9 126.6 10.3 0 95z" id="uid_24"/></g></g></g><g id="s20-1783" transform="translate(20, 1783.0)"><g transform="translate(-0.0, -0.0)"><defs><style>.cl17 {
    fill: #fff
    }</style></defs><title>Heart</title><g data-name="Layer 2" id="uid_25"><path class="cl17" d="M64.89 117.86c-136-91-19-147 0-102 19-45 136 11 0 102z" id="uid_26"/></g></g></g><g id="s20-1921" transform="translate(20, 1921.0)"><g transform="translate(-0.0, -0.0)"><style>.cl18 {
    fill: #1771ae
    }
.cl19 {
    clip-path: url(#uid_31)
    }
.cl20 {
    fill: #176294
    }</style><title>HowtoWinBG</title><g id="uid_28"><g id="uid_29"><path class="cl18" d="M57.8 0h1552.3c31.9 0 57.8 25.9 57.8 57.8v2116.3c0 31.9-25.9 57.9-57.8 57.9H57.8c-31.9 0-57.8-25.9-57.8-57.9V57.8C0 25.9 25.9 0 57.8 0z"/><defs><path d="M57.8 0h1552.3c31.9 0 57.8 25.9 57.8 57.8v2116.3c0 31.9-25.9 57.9-57.8 57.9H57.8c-31.9 0-57.8-25.9-57.8-57.9V57.8C0 25.9 25.9 0 57.8 0z" id="uid_30"/></defs><clipPath id="uid_31"><use overflow="visible" xlink:href="#uid_30"/></clipPath><g class="cl19"><path class="cl20" d="M100 340l164-104v180zM488 352l-84 160 208-20zM696 326L644 60l224 72zM1096 452l168-216 172 240zM1508 236l28 90 60-90zM468 1588v244l256-122zM140 1668l42 260-222-96zM404 1960l-40 168 144-52zM1008 1540l44 96 68-96zM1096 1832l144-84v212zM1552 1540l80 128 80-148zM1508 1928l-184 200 228 40zM756 1244l-68-208 268 64zM1266 680l-98 80 120 72zM1436 940l-64 44 64 52zM232 756l32 184 120-156zM404 988l-76 72 76 20z"/></g></g></g></g></g><g id="s20-4173" transform="translate(20, 4173.0)"><g transform="translate(-0.0, -0.0)"><defs><style>.cl21 {
    fill: #e34e37
    }</style></defs><title>LobbyHeader</title><g data-name="Layer 2" id="uid_32"><path class="cl21" d="M0 0l50 92v196l60 36 62-38 82 38 70-36 70 36 62-34 68.5 37.5L594 288l65.5 37.5L722 288l64 26 70-32 148 62-40.5-103.5-1-180L900 12l-64.5 44.5L756 18l-71 39-69-39-63 38-71-34-71 32-67.5-29.5L283 58l-69-34-61 34L0 0z" id="uid_33"/></g></g></g><g id="s20-4537" transform="translate(20, 4537.0)"><g transform="translate(-0.0, -0.0)"><defs><style>.cl22 {
    fill: #f8ec3c
    }</style></defs><title>LoseHeader</title><g data-name="Layer 2" id="uid_34"><path class="cl22" d="M0 0l48 105v136l57 33 62-38 80 39 68-39 69 35 67-35 66 33 73-34 64 30 62-30 65 31 67-37 158 66-50-109V55l-62-40-59 40-84-37-69 36-71-33-66 32-70-35-72 38-66-31-62 31-67-34-61 35L0 0z" id="uid_35"/></g></g></g><g id="s20-4852" transform="translate(20, 4852.0)"><g transform="translate(-0.0, -0.0)"><defs><style>.cl23 {
    fill: #49b5ce
    }</style></defs><title>Moon</title><g data-name="Layer 2" id="uid_36"><path class="cl23" d="M89.35 15.88A54.77 54.77 0 0 0 55.46 0a55.82 55.82 0 0 1 4 20.77 56 56 0 0 1-56 56c-1.16 0-2.31 0-3.46-.12a55 55 0 1 0 89.35-60.77z" id="uid_37"/></g></g></g><g id="s20-4982" transform="translate(20, 4982.0)"><g transform="translate(-0.0, -0.0)"><defs><style>.cl24 {
    fill: #bfbfbf
    }</style></defs><title>Moon</title><g data-name="Layer 2" id="uid_38"><path class="cl24" d="M89.35 15.88A54.77 54.77 0 0 0 55.46 0a55.82 55.82 0 0 1 4 20.77 56 56 0 0 1-56 56c-1.16 0-2.31 0-3.46-.12a55 55 0 1 0 89.35-60.77z" id="uid_39"/></g></g></g><g id="s20-5112" transform="translate(20, 5112.0)"><g transform="translate(-0.0, -0.0)"><style>.cl25 {
    fill: #49b5ce;
    stroke: #000;
    stroke-width: 6;
    stroke-miterlimit: 10
    }</style><title>Moon</title><g id="uid_41"><path class="cl25" d="M87.2 19.3a49.47 49.47 0 0 0-31-14.5c2.4 6 3.7 12.5 3.7 19C59.9 52 37 74.9 8.7 74.9c-1.1 0-2.1 0-3.2-.1 11 25.4 40.6 37.1 66 26.1s37.1-40.6 26.1-66c-2.4-5.9-6-11.2-10.4-15.6z" id="uid_42"/></g></g></g><g id="s20-5242" transform="translate(20, 5242.0)"><g transform="translate(-0.0, -0.0)"><defs><style>.cl26 {
    fill: #fff
    }</style></defs><title>Moon</title><g data-name="Layer 2" id="uid_43"><path class="cl26" d="M89.35 15.88A54.77 54.77 0 0 0 55.46 0a55.82 55.82 0 0 1 4 20.77 56 56 0 0 1-56 56c-1.16 0-2.31 0-3.46-.12a55 55 0 1 0 89.35-60.77z" id="uid_44"/></g></g></g><g id="s20-5372" transform="translate(20, 5372.0)"><g transform="translate(-0.0, -0.0)"><defs><style>.cl27 {
    fill: #1771ae
    }
.cl28 {
    fill: #fff
    }</style></defs><title>SearchIcon</title><g data-name="Layer 2" id="uid_45"><g data-name="Layer 40" id="uid_46"><rect class="cl27" height="113" rx="8.33" ry="8.33" width="113"/><path class="cl28" d="M67.5 17A28.5 28.5 0 1 0 96 45.5 28.5 28.5 0 0 0 67.5 17zm0 48A19.5 19.5 0 1 1 87 45.5 19.5 19.5 0 0 1 67.5 65z"/><path class="cl28" d="M44 60L21 88s2 8 9 8l26-31z"/></g></g></g></g><g id="s20-5505" transform="translate(20, 5505.0)"><g transform="translate(-0.0, -0.0)"><defs><style>.cl29 {
    fill: #d688e2
    }</style></defs><title>Star_1</title><g data-name="Layer 2" id="uid_47"><path class="cl29" d="M101.84 83.91a9.62 9.62 0 0 0-2.14 6.91l5.87 41.08c.31 2.18-1 3.11-3 2.07l-34-18.22a8.35 8.35 0 0 0-7 0L27.66 134c-1.94 1-3.27.11-3-2.07l5.87-41.08a9.62 9.62 0 0 0-2.14-6.91L.84 53.81c-1.49-1.62-.94-3.29 1.23-3.7l39.14-7.5a8.7 8.7 0 0 0 5.58-4.39L63.48 1.5c.91-2 2.4-2 3.31 0l16.69 36.72a8.7 8.7 0 0 0 5.58 4.39l39.14 7.5c2.16.41 2.71 2.08 1.23 3.7z" id="uid_48"/></g></g></g><g id="s20-5660" transform="translate(20, 5660.0)"><g transform="translate(-0.0, -0.0)"><defs><style>.cl30 {
    fill: #bfbfbf
    }</style></defs><title>Star</title><g data-name="Layer 2" id="uid_49"><path class="cl30" d="M101.84 83.91a9.62 9.62 0 0 0-2.14 6.91l5.87 41.08c.31 2.18-1 3.11-3 2.07l-34-18.22a8.35 8.35 0 0 0-7 0L27.66 134c-1.94 1-3.27.11-3-2.07l5.87-41.08a9.62 9.62 0 0 0-2.14-6.91L.84 53.81c-1.49-1.62-.94-3.29 1.23-3.7l39.14-7.5a8.7 8.7 0 0 0 5.58-4.39L63.48 1.5c.91-2 2.4-2 3.31 0l16.69 36.72a8.7 8.7 0 0 0 5.58 4.39l39.14 7.5c2.16.41 2.71 2.08 1.23 3.7z" id="uid_50"/></g></g></g><g id="s20-5815" transform="translate(20, 5815.0)"><g transform="translate(-0.0, -0.0)"><style>.cl31 {
    fill: #d688e2;
    stroke: #000;
    stroke-width: 6;
    stroke-miterlimit: 10
    }</style><title>Star_1</title><g id="uid_52"><path class="cl31" d="M100 83.1a9.14 9.14 0 0 0-2 6.6l5.6 39c.3 2.1-.9 3-2.8 2l-32.3-17.3c-2.1-1-4.5-1-6.6 0l-32.2 17.3c-1.8.9-3.1.1-2.8-2l5.6-39c.2-2.4-.5-4.7-2-6.6L4.1 54.5C2.7 53 3.2 51.4 5.3 51l37.2-7.1a8.3 8.3 0 0 0 5.3-4.2L63.6 4.8c.9-1.9 2.3-1.9 3.1 0l15.9 34.9c1.1 2.1 3 3.6 5.3 4.2L125 51c2.1.4 2.6 2 1.2 3.5L100 83.1z" id="uid_53"/></g></g></g><g id="s20-5970" transform="translate(20, 5970.0)"><g transform="translate(-0.0, -0.0)"><defs><style>.cl32 {
    fill: #fff
    }</style></defs><title>Star</title><g data-name="Layer 2" id="uid_54"><path class="cl32" d="M101.84 83.91a9.62 9.62 0 0 0-2.14 6.91l5.87 41.08c.31 2.18-1 3.11-3 2.07l-34-18.22a8.35 8.35 0 0 0-7 0L27.66 134c-1.94 1-3.27.11-3-2.07l5.87-41.08a9.62 9.62 0 0 0-2.14-6.91L.84 53.81c-1.49-1.62-.94-3.29 1.23-3.7l39.14-7.5a8.7 8.7 0 0 0 5.58-4.39L63.48 1.5c.91-2 2.4-2 3.31 0l16.69 36.72a8.7 8.7 0 0 0 5.58 4.39l39.14 7.5c2.16.41 2.71 2.08 1.23 3.7z" id="uid_55"/></g></g></g><g id="s20-6125" transform="translate(20, 6125.0)"><g transform="translate(-0.0, -0.0)"><defs><style>.cl33 {
    fill: #ea7a2f
    }</style></defs><title>Sun_1</title><g data-name="Layer 2" id="uid_56"><path class="cl33" d="M108.25 83.6a6.61 6.61 0 0 0-2.15 6.33l5 19.26c.55 2.13-.76 3.52-2.92 3.09L86 107.84a6.55 6.55 0 0 0-6.17 2.52l-12.5 18.38a2.54 2.54 0 0 1-4.5 0l-12.5-18.38a6.55 6.55 0 0 0-6.17-2.52L22 112.27c-2.16.43-3.47-1-2.92-3.09l5-19.26a6.61 6.61 0 0 0-2.15-6.33L1.25 67.51a2.68 2.68 0 0 1 .19-4.64l19.3-12.62a6.45 6.45 0 0 0 2.59-6.12L18.85 21A2.5 2.5 0 0 1 22 17.84l22.16 4.43a6.55 6.55 0 0 0 6.17-2.52L62.84 1.36a2.54 2.54 0 0 1 4.5 0l12.5 18.38A6.55 6.55 0 0 0 86 22.27l22.16-4.43a2.5 2.5 0 0 1 3.17 3.16l-4.48 23.15a6.45 6.45 0 0 0 2.59 6.12l19.3 12.62a2.68 2.68 0 0 1 .19 4.64z" id="uid_57"/></g></g></g><g id="s20-6276" transform="translate(20, 6276.0)"><g transform="translate(-0.0, -0.0)"><defs><style>.cl34 {
    fill: #bfbfbf
    }</style></defs><title>Sun</title><g data-name="Layer 2" id="uid_58"><path class="cl34" d="M108.25 83.6a6.61 6.61 0 0 0-2.15 6.33l5 19.26c.55 2.13-.76 3.52-2.92 3.09L86 107.84a6.55 6.55 0 0 0-6.17 2.52l-12.5 18.38a2.54 2.54 0 0 1-4.5 0l-12.5-18.38a6.55 6.55 0 0 0-6.17-2.52L22 112.27c-2.16.43-3.47-1-2.92-3.09l5-19.26a6.61 6.61 0 0 0-2.15-6.33L1.25 67.51a2.68 2.68 0 0 1 .19-4.64l19.3-12.62a6.45 6.45 0 0 0 2.59-6.12L18.85 21A2.5 2.5 0 0 1 22 17.84l22.16 4.43a6.55 6.55 0 0 0 6.17-2.52L62.84 1.36a2.54 2.54 0 0 1 4.5 0l12.5 18.38A6.55 6.55 0 0 0 86 22.27l22.16-4.43a2.5 2.5 0 0 1 3.17 3.16l-4.48 23.15a6.45 6.45 0 0 0 2.59 6.12l19.3 12.62a2.68 2.68 0 0 1 .19 4.64z" id="uid_59"/></g></g></g><g id="s20-6427" transform="translate(20, 6427.0)"><g transform="translate(-0.0, -0.0)"><style>.cl35 {
    fill: #ea7a2f;
    stroke: #000;
    stroke-width: 6;
    stroke-miterlimit: 10
    }</style><title>Sun_1</title><g id="uid_61"><path class="cl35" d="M106.2 82.7a6.2 6.2 0 0 0-2 6L109 107c.5 2-.7 3.4-2.8 2.9L85 105.8c-2.3-.3-4.5.6-5.9 2.4l-11.9 17.5c-.6 1.2-2.1 1.6-3.3 1-.4-.2-.8-.6-1-1L51 108.2a6.35 6.35 0 0 0-5.9-2.4L24 110c-2.1.4-3.3-1-2.8-2.9L26 88.7c.5-2.2-.3-4.5-2-6L4.3 67.4c-1.2-.8-1.5-2.3-.8-3.5.2-.4.6-.7 1-.9l18.4-12c1.8-1.3 2.8-3.6 2.5-5.8l-4.3-22c-.4-1.2.3-2.6 1.5-3 .5-.2 1-.2 1.5 0l21.1 4.2c2.3.3 4.5-.6 5.9-2.4L62.9 4.4c.6-1.2 2.1-1.6 3.3-1 .4.2.8.6 1 1l11.9 17.5c1.4 1.8 3.6 2.7 5.9 2.4l21.1-4.2c1.2-.4 2.6.2 3 1.5.2.5.2 1 0 1.5l-4.3 22.1c-.3 2.2.6 4.5 2.5 5.8l18.4 12c1.2.7 1.7 2.2 1.1 3.4-.2.4-.5.7-.9 1l-19.7 15.3z" id="uid_62"/></g></g></g><g id="s20-6578" transform="translate(20, 6578.0)"><g transform="translate(-0.0, -0.0)"><defs><style>.cl36 {
    fill: #fff
    }</style></defs><title>Sun</title><g data-name="Layer 2" id="uid_63"><path class="cl36" d="M108.25 83.6a6.61 6.61 0 0 0-2.15 6.33l5 19.26c.55 2.13-.76 3.52-2.92 3.09L86 107.84a6.55 6.55 0 0 0-6.17 2.52l-12.5 18.38a2.54 2.54 0 0 1-4.5 0l-12.5-18.38a6.55 6.55 0 0 0-6.17-2.52L22 112.27c-2.16.43-3.47-1-2.92-3.09l5-19.26a6.61 6.61 0 0 0-2.15-6.33L1.25 67.51a2.68 2.68 0 0 1 .19-4.64l19.3-12.62a6.45 6.45 0 0 0 2.59-6.12L18.85 21A2.5 2.5 0 0 1 22 17.84l22.16 4.43a6.55 6.55 0 0 0 6.17-2.52L62.84 1.36a2.54 2.54 0 0 1 4.5 0l12.5 18.38A6.55 6.55 0 0 0 86 22.27l22.16-4.43a2.5 2.5 0 0 1 3.17 3.16l-4.48 23.15a6.45 6.45 0 0 0 2.59 6.12l19.3 12.62a2.68 2.68 0 0 1 .19 4.64z" id="uid_64"/></g></g></g><g id="s20-6729" transform="translate(20, 6729.0)"><g transform="translate(-0.0, -0.0)"><defs><style>.cl37 {
    fill: none
    }
.cl38 {
    fill: #3c0e04
    }
.cl39 {
    fill: #fff
    }
.cl40 {
    clip-path: url(#uid_65)
    }
.cl41 {
    fill: #e5e1d6
    }</style><clipPath id="uid_65"><path class="cl37" d="M185.7 45.44c-24-15-51 10-61 20s-27 28-57 38-40 65-16 82 64 24 112-19c52-62 46-107 22-121z"/></clipPath></defs><title>WhiteBean</title><g data-name="Layer 2" id="uid_66"><g data-name="Layer 37" id="uid_67"><circle class="cl38" cx="119.57" cy="119.57" r="119.57"/><path class="cl39" d="M185.7 45.44c-24-15-51 10-61 20s-27 28-57 38-40 65-16 82 64 24 112-19c52-62 46-107 22-121z"/><g class="cl40"><ellipse class="cl41" cx="100.2" cy="85.94" rx="24.5" ry="21.5" transform="rotate(-36.66 100.2 85.93)"/></g></g></g></g></g><g id="s20-6989" transform="translate(20, 6989.0)"><g transform="translate(-0.0, -0.0)"><defs><style>.cl42 {
    fill: #fff
    }
.cl43 {
    fill: #313e65
    }
.cl44 {
    fill: #d84d31
    }
.cl45 {
    fill: #3c0e04
    }</style></defs><title>Win4Corners</title><g data-name="Layer 2" id="uid_68"><g data-name="Layer 32" id="uid_69"><rect class="cl42" height="226" rx="6.61" ry="6.61" width="155"/><g data-name="Layer 27" id="uid_70"><rect class="cl43" height="93" rx="6.74" ry="6.74" width="65" x="6" y="6"/><rect class="cl43" height="93" rx="6.74" ry="6.74" width="65" x="84" y="6"/><rect class="cl43" height="93" rx="6.74" ry="6.74" width="65" x="6" y="129"/><rect class="cl43" height="93" rx="6.74" ry="6.74" width="65" x="84" y="129"/></g><rect class="cl44" height="40.96" rx="3.18" ry="3.18" width="26.92" x="10" y="10"/><path class="cl45" d="M18.78 34.58a3.34 3.34 0 0 1 1.17-4.68 4.57 4.57 0 0 0 2.34-1.76C22.87 27 24 25.8 25.21 25.8s4.1 1.17 2.93 4.1A14.67 14.67 0 0 1 25.8 34c-1.17 1.75-5.27 3.5-7.02.58z"/><rect class="cl44" height="40.96" rx="3.18" ry="3.18" width="26.92" x="40.08" y="10"/><path class="cl45" d="M48.86 34.58A3.34 3.34 0 0 1 50 29.89a4.57 4.57 0 0 0 2.34-1.76C53 27 54.13 25.8 55.3 25.8s4.1 1.17 2.93 4.1a14.67 14.67 0 0 1-2.35 4.1c-1.17 1.75-5.26 3.5-7.02.58z"/><rect class="cl44" height="40.96" rx="3.18" ry="3.18" width="26.92" x="10" y="54.33"/><path class="cl45" d="M18.78 78.91a3.34 3.34 0 0 1 1.17-4.68 4.57 4.57 0 0 0 2.34-1.76c.59-1.17 1.76-2.34 2.93-2.34s4.1 1.17 2.93 4.1a14.67 14.67 0 0 1-2.34 4.1c-1.18 1.75-5.28 3.51-7.03.58z"/><rect class="cl44" height="40.96" rx="3.18" ry="3.18" width="26.92" x="40.08" y="54.33"/><path class="cl45" d="M48.86 78.91A3.34 3.34 0 0 1 50 74.23a4.57 4.57 0 0 0 2.34-1.76c.59-1.17 1.76-2.34 2.93-2.34s4.1 1.17 2.93 4.1a14.67 14.67 0 0 1-2.34 4.1c-1.15 1.75-5.24 3.51-7 .58z"/><rect class="cl44" height="40.96" rx="3.18" ry="3.18" width="26.92" x="88" y="9"/><path class="cl45" d="M96.78 33.58a3.34 3.34 0 0 1 1.17-4.68 4.57 4.57 0 0 0 2.34-1.76c.59-1.17 1.76-2.34 2.93-2.34s4.1 1.17 2.93 4.1a14.67 14.67 0 0 1-2.35 4.1c-1.17 1.75-5.27 3.5-7.02.58z"/><rect class="cl44" height="40.96" rx="3.18" ry="3.18" width="26.92" x="118.08" y="9"/><path class="cl45" d="M126.86 33.58a3.34 3.34 0 0 1 1.14-4.69 4.57 4.57 0 0 0 2.34-1.76c.59-1.17 1.76-2.34 2.93-2.34s4.1 1.17 2.93 4.1a14.67 14.67 0 0 1-2.34 4.1c-1.15 1.76-5.24 3.51-7 .59z"/><rect class="cl44" height="40.96" rx="3.18" ry="3.18" width="26.92" x="88" y="53.33"/><path class="cl45" d="M96.78 77.91a3.34 3.34 0 0 1 1.17-4.68 4.57 4.57 0 0 0 2.34-1.76c.59-1.17 1.76-2.34 2.93-2.34s4.1 1.17 2.93 4.1a14.67 14.67 0 0 1-2.34 4.1c-1.18 1.75-5.28 3.51-7.03.58z"/><rect class="cl44" height="40.96" rx="3.18" ry="3.18" width="26.92" x="118.08" y="53.33"/><path class="cl45" d="M126.86 77.91a3.34 3.34 0 0 1 1.14-4.68 4.57 4.57 0 0 0 2.34-1.76c.59-1.17 1.76-2.34 2.93-2.34s4.1 1.17 2.93 4.1a14.67 14.67 0 0 1-2.34 4.1c-1.15 1.75-5.24 3.51-7 .58z"/><rect class="cl44" height="40.96" rx="3.18" ry="3.18" width="26.92" x="10" y="177.33"/><path class="cl45" d="M18.78 201.91a3.34 3.34 0 0 1 1.17-4.68 4.57 4.57 0 0 0 2.34-1.76c.59-1.17 1.76-2.34 2.93-2.34s4.1 1.17 2.93 4.1a14.67 14.67 0 0 1-2.34 4.1c-1.18 1.75-5.28 3.51-7.03.58z"/><rect class="cl44" height="40.96" rx="3.18" ry="3.18" width="26.92" x="10" y="133"/><path class="cl45" d="M18.78 157.58a3.34 3.34 0 0 1 1.17-4.68 4.57 4.57 0 0 0 2.34-1.76c.59-1.17 1.76-2.34 2.93-2.34s4.1 1.17 2.93 4.1a14.67 14.67 0 0 1-2.35 4.1c-1.17 1.75-5.27 3.5-7.02.58z"/><rect class="cl44" height="40.96" rx="3.18" ry="3.18" width="26.92" x="40.08" y="133"/><path class="cl45" d="M48.86 157.58a3.34 3.34 0 0 1 1.14-4.69 4.57 4.57 0 0 0 2.34-1.76c.59-1.17 1.76-2.34 2.93-2.34s4.1 1.17 2.93 4.1a14.67 14.67 0 0 1-2.34 4.1c-1.15 1.76-5.24 3.51-7 .59z"/><rect class="cl44" height="40.96" rx="3.18" ry="3.18" width="26.92" x="40.08" y="177.33"/><path class="cl45" d="M48.86 201.91a3.34 3.34 0 0 1 1.14-4.68 4.57 4.57 0 0 0 2.34-1.76c.59-1.17 1.76-2.34 2.93-2.34s4.1 1.17 2.93 4.1a14.67 14.67 0 0 1-2.34 4.1c-1.15 1.75-5.24 3.51-7 .58z"/><rect class="cl44" height="40.96" rx="3.18" ry="3.18" width="26.92" x="88" y="133"/><path class="cl45" d="M96.78 157.58a3.34 3.34 0 0 1 1.17-4.68 4.57 4.57 0 0 0 2.34-1.76c.59-1.17 1.76-2.34 2.93-2.34s4.1 1.17 2.93 4.1a14.67 14.67 0 0 1-2.34 4.1c-1.18 1.75-5.28 3.5-7.03.58z"/><rect class="cl44" height="40.96" rx="3.18" ry="3.18" width="26.92" x="118.08" y="133"/><path class="cl45" d="M126.86 157.58a3.34 3.34 0 0 1 1.17-4.68 4.57 4.57 0 0 0 2.34-1.76c.59-1.17 1.76-2.34 2.93-2.34s4.1 1.17 2.93 4.1a14.67 14.67 0 0 1-2.34 4.1c-1.18 1.75-5.27 3.5-7.03.58z"/><rect class="cl44" height="40.96" rx="3.18" ry="3.18" width="26.92" x="88" y="177.33"/><path class="cl45" d="M96.78 201.91a3.34 3.34 0 0 1 1.17-4.68 4.57 4.57 0 0 0 2.34-1.76c.59-1.17 1.76-2.34 2.93-2.34s4.1 1.17 2.93 4.1a14.67 14.67 0 0 1-2.34 4.1c-1.18 1.75-5.28 3.51-7.03.58z"/><rect class="cl44" height="40.96" rx="3.18" ry="3.18" width="26.92" x="118.08" y="177.33"/><path class="cl45" d="M126.86 201.91a3.34 3.34 0 0 1 1.17-4.68 4.57 4.57 0 0 0 2.34-1.76c.59-1.17 1.76-2.34 2.93-2.34s4.1 1.17 2.93 4.1a14.67 14.67 0 0 1-2.34 4.1c-1.18 1.75-5.27 3.51-7.03.58z"/></g></g></g></g><g id="s20-7235" transform="translate(20, 7235.0)"><g transform="translate(-0.0, -0.0)"><defs><style>.cl46 {
    fill: #fff
    }
.cl47 {
    fill: #d84d31
    }
.cl48 {
    fill: #3c0e04
    }</style></defs><title>WinColumn</title><g data-name="Layer 2" id="uid_71"><g data-name="Layer 24" id="uid_72"><rect class="cl46" height="225" rx="8.38" ry="8.38" width="42"/><rect class="cl47" height="51.74" rx="3.18" ry="3.18" width="34" x="4" y="4"/><path class="cl48" d="M15.09 35c-2.22-3.7 1.48-5.91 1.48-5.91a5.77 5.77 0 0 0 3-2.22c.74-1.48 2.22-3 3.7-3s5.17 1.48 3.7 5.17c-.74 2.22-1.48 3-3 5.17s-6.67 4.53-8.88.79z"/><rect class="cl47" height="51.74" rx="3.18" ry="3.18" width="34" x="4" y="58.7"/><path class="cl48" d="M15.09 89.74c-2.22-3.7 1.48-5.91 1.48-5.91a5.77 5.77 0 0 0 3-2.22c.74-1.48 2.22-3 3.7-3s5.17 1.48 3.7 5.17c-.74 2.22-1.48 3-3 5.17s-6.67 4.48-8.88.79z"/><rect class="cl47" height="51.74" rx="3.18" ry="3.18" width="34" x="4" y="113.39"/><path class="cl48" d="M15.09 144.43c-2.22-3.7 1.48-5.91 1.48-5.91a5.77 5.77 0 0 0 3-2.22c.74-1.48 2.22-3 3.7-3s5.17 1.48 3.7 5.17c-.74 2.22-1.48 3-3 5.17s-6.67 4.49-8.88.79z"/><rect class="cl47" height="51.74" rx="3.18" ry="3.18" width="34" x="4" y="168.83"/><path class="cl48" d="M15.09 199.87c-2.22-3.7 1.48-5.91 1.48-5.91a5.77 5.77 0 0 0 3-2.22c.74-1.48 2.22-3 3.7-3s5.17 1.48 3.7 5.17c-.74 2.22-1.48 3-3 5.17s-6.67 4.49-8.88.79z"/></g></g></g></g><g id="s20-7480" transform="translate(20, 7480.0)"><g transform="translate(-0.0, -0.0)"><defs><style>.cl49 {
    fill: #2e72ac
    }</style></defs><title>WinHeader</title><g data-name="Layer 2" id="uid_73"><path class="cl49" d="M0 0l48 105v136l57 33 62-38 80 39 68-39 69 35 67-35 66 33 73-34 64 30 62-30 65 31 67-37 158 66-50-109V55l-62-40-59 40-84-37-69 36-71-33-66 32-70-35-72 38-66-31-62 31-67-34-61 35L0 0z" id="uid_74"/></g></g></g><g id="s20-7795" transform="translate(20, 7795.0)"><g transform="translate(-0.0, -0.0)"><defs><style>.cl50 {
    fill: #fff
    }
.cl51 {
    fill: #313e65
    }
.cl52 {
    fill: #d84d31
    }
.cl53 {
    fill: #3c0e04
    }</style></defs><title>WinInsideOutside</title><g data-name="Layer 2" id="uid_75"><g data-name="Layer 31" id="uid_76"><rect class="cl50" height="226" rx="6.61" ry="6.61" width="155"/><rect class="cl51" height="118" rx="6.58" ry="6.58" width="79" x="38" y="54"/><rect class="cl50" height="108" rx="5.67" ry="5.67" width="70" x="43" y="59"/><rect class="cl52" height="46" rx="3.18" ry="3.18" width="30.23" x="4" y="4"/><path class="cl53" d="M13.86 31.6c-2-3.29 1.31-5.26 1.31-5.26a5.13 5.13 0 0 0 2.63-2c.66-1.31 2-2.63 3.29-2.63s4.6 1.31 3.29 4.6c-.66 2-1.31 2.63-2.63 4.6s-5.92 3.98-7.89.69z"/><rect class="cl52" height="46" rx="3.18" ry="3.18" width="30.23" x="81.38" y="4"/><path class="cl53" d="M91.24 31.6c-2-3.29 1.31-5.26 1.31-5.26a5.13 5.13 0 0 0 2.63-2c.66-1.31 2-2.63 3.29-2.63s4.6 1.31 3.29 4.6c-.66 2-1.31 2.63-2.63 4.6s-5.92 3.98-7.89.69z"/><rect class="cl52" height="46" rx="3.18" ry="3.18" width="30.23" x="43.19" y="4"/><path class="cl53" d="M53 31.6c-2-3.29 1.31-5.26 1.31-5.26a5.13 5.13 0 0 0 2.63-2c.66-1.31 2-2.63 3.29-2.63s4.6 1.31 3.29 4.6c-.66 2-1.31 2.63-2.63 4.6S55 34.89 53 31.6z"/><rect class="cl52" height="46" rx="3.18" ry="3.18" width="30.23" x="120.57" y="4"/><path class="cl53" d="M130.43 31.6c-2-3.29 1.31-5.26 1.31-5.26a5.13 5.13 0 0 0 2.63-2c.66-1.31 2-2.63 3.29-2.63s4.6 1.31 3.29 4.6c-.66 2-1.31 2.63-2.63 4.6s-5.92 3.98-7.89.69z"/><rect class="cl52" height="46" rx="3.18" ry="3.18" width="30.23" x="4" y="176"/><path class="cl53" d="M13.86 203.6c-2-3.29 1.31-5.26 1.31-5.26a5.13 5.13 0 0 0 2.63-2c.66-1.31 2-2.63 3.29-2.63s4.6 1.31 3.29 4.6c-.66 2-1.31 2.63-2.63 4.6s-5.92 3.98-7.89.69z"/><rect class="cl52" height="46" rx="3.18" ry="3.18" width="30.23" x="81.38" y="176"/><path class="cl53" d="M91.24 203.6c-2-3.29 1.31-5.26 1.31-5.26a5.13 5.13 0 0 0 2.63-2c.66-1.31 2-2.63 3.29-2.63s4.6 1.31 3.29 4.6c-.66 2-1.31 2.63-2.63 4.6s-5.92 3.98-7.89.69z"/><rect class="cl52" height="46" rx="3.18" ry="3.18" width="30.23" x="43.19" y="176"/><path class="cl53" d="M53 203.6c-2-3.29 1.31-5.26 1.31-5.26a5.13 5.13 0 0 0 2.63-2c.66-1.31 2-2.63 3.29-2.63s4.6 1.31 3.29 4.6c-.66 2-1.31 2.63-2.63 4.6s-5.89 3.98-7.89.69z"/><rect class="cl52" height="46" rx="3.18" ry="3.18" width="30.23" x="120.57" y="176"/><path class="cl53" d="M130.43 203.6c-2-3.29 1.31-5.26 1.31-5.26a5.13 5.13 0 0 0 2.63-2c.66-1.31 2-2.63 3.29-2.63s4.6 1.31 3.29 4.6c-.66 2-1.31 2.63-2.63 4.6s-5.92 3.98-7.89.69z"/><rect class="cl52" height="46" rx="3.18" ry="3.18" width="30.23" x="4" y="61"/><path class="cl53" d="M13.86 88.6c-2-3.29 1.31-5.26 1.31-5.26a5.13 5.13 0 0 0 2.63-2c.66-1.31 2-2.63 3.29-2.63s4.6 1.31 3.29 4.6c-.66 2-1.31 2.63-2.63 4.6s-5.92 3.98-7.89.69z"/><rect class="cl52" height="46" rx="3.18" ry="3.18" width="30.23" x="4" y="119"/><path class="cl53" d="M13.86 146.6c-2-3.29 1.31-5.26 1.31-5.26a5.13 5.13 0 0 0 2.63-2c.66-1.31 2-2.63 3.29-2.63s4.6 1.31 3.29 4.6c-.66 2-1.31 2.63-2.63 4.6s-5.92 3.98-7.89.69z"/><rect class="cl52" height="46" rx="3.18" ry="3.18" width="30.23" x="121" y="61"/><path class="cl53" d="M130.86 88.6c-2-3.29 1.31-5.26 1.31-5.26a5.13 5.13 0 0 0 2.63-2c.66-1.31 2-2.63 3.29-2.63s4.6 1.31 3.29 4.6c-.66 2-1.31 2.63-2.63 4.6s-5.92 3.98-7.89.69z"/><rect class="cl52" height="46" rx="3.18" ry="3.18" width="30.23" x="121" y="119"/><path class="cl53" d="M130.86 146.6c-2-3.29 1.31-5.26 1.31-5.26a5.13 5.13 0 0 0 2.63-2c.66-1.31 2-2.63 3.29-2.63s4.6 1.31 3.29 4.6c-.66 2-1.31 2.63-2.63 4.6s-5.92 3.98-7.89.69z"/><rect class="cl52" height="46" rx="3.18" ry="3.18" width="30.23" x="46" y="65"/><path class="cl53" d="M55.86 92.6c-2-3.29 1.31-5.26 1.31-5.26a5.13 5.13 0 0 0 2.63-2c.66-1.31 2-2.63 3.29-2.63s4.6 1.31 3.29 4.6c-.66 2-1.31 2.63-2.63 4.6s-5.92 3.98-7.89.69z"/><rect class="cl52" height="46" rx="3.18" ry="3.18" width="30.23" x="46" y="114"/><path class="cl53" d="M55.86 141.6c-2-3.29 1.31-5.26 1.31-5.26a5.13 5.13 0 0 0 2.63-2c.66-1.31 2-2.63 3.29-2.63s4.6 1.31 3.29 4.6c-.66 2-1.31 2.63-2.63 4.6s-5.92 3.98-7.89.69z"/><rect class="cl52" height="46" rx="3.18" ry="3.18" transform="translate(-1.02 1.12)" width="30.23" x="80" y="65"/><path class="cl53" d="M89.91 92.66c-2-3.26 1.25-5.27 1.25-5.27a5.13 5.13 0 0 0 2.61-2c.64-1.32 1.94-2.65 3.25-2.67s4.62 1.26 3.34 4.56c-.63 2-1.28 2.64-2.57 4.63s-5.87 4.01-7.88.75z"/><rect class="cl52" height="46" rx="3.18" ry="3.18" width="30.23" x="80" y="114"/><path class="cl53" d="M89.86 141.6c-2-3.29 1.31-5.26 1.31-5.26a5.13 5.13 0 0 0 2.63-2c.66-1.31 2-2.63 3.29-2.63s4.6 1.31 3.29 4.6c-.66 2-1.31 2.63-2.63 4.6s-5.92 3.98-7.89.69z"/></g></g></g></g><g id="s20-8041" transform="translate(20, 8041.0)"><g transform="translate(-0.0, -0.0)"><defs><style>.cl54 {
    fill: #fff
    }
.cl55 {
    fill: #d84d31
    }
.cl56 {
    fill: #3c0e04
    }</style></defs><title>WinRow</title><g data-name="Layer 2" id="uid_77"><g data-name="Layer 24" id="uid_78"><rect class="cl54" height="79" rx="7.83" ry="7.83" width="206"/><rect class="cl55" height="70" rx="3.18" ry="3.18" width="46" x="5" y="5"/><path class="cl56" d="M20 47c-3-5 2-8 2-8s3-1 4-3 3-4 5-4 7 2 5 7c-1 3-2 4-4 7s-9 6-12 1z"/><rect class="cl55" height="70" rx="3.18" ry="3.18" width="46" x="55" y="5"/><path class="cl56" d="M70 47c-3-5 2-8 2-8s3-1 4-3 3-4 5-4 7 2 5 7c-1 3-2 4-4 7s-9 6-12 1z"/><rect class="cl55" height="70" rx="3.18" ry="3.18" width="46" x="104" y="5"/><path class="cl56" d="M119 47c-3-5 2-8 2-8s3-1 4-3 3-4 5-4 7 2 5 7c-1 3-2 4-4 7s-9 6-12 1z"/><rect class="cl55" height="70" rx="3.18" ry="3.18" width="46" x="155" y="5"/><path class="cl56" d="M170 47c-3-5 2-8 2-8s3-1 4-3 3-4 5-4 7 2 5 7c-1 3-2 4-4 7s-9 6-12 1z"/></g></g></g></g><g id="s20-8140" transform="translate(20, 8140.0)"><g transform="translate(-0.0, -0.0)"><defs><style>.cl57 {
    fill: #fff
    }
.cl58 {
    fill: #2e72ac
    }
.cl59 {
    fill: #002a8b
    }
.cl60 {
    fill: #001669
    }</style></defs><title>X_1</title><g data-name="Layer 2" id="uid_79"><g data-name="Layer 48" id="uid_80"><path class="cl57" d="M8.85 1.84L133.84 0a4.81 4.81 0 0 1 4.46 2.85l34.5 77.64a4.81 4.81 0 0 0 8.72.14l25.17-52A4.81 4.81 0 0 1 211 26h104.39a4.81 4.81 0 0 1 4.34 6.88L233 214a4.81 4.81 0 0 0-.06 4l84.14 191.23a4.81 4.81 0 0 1-4.4 6.74H222.9a4.81 4.81 0 0 1-4.24-2.53l-38.07-70.94a4.81 4.81 0 0 0-8.61.27l-44.65 97.33a4.81 4.81 0 0 1-4.48 2.8L4.7 440.13a4.81 4.81 0 0 1-4.16-7l111.33-215.95a4.81 4.81 0 0 0 0-4.44L4.66 8.88a4.81 4.81 0 0 1 4.19-7.04z"/><path class="cl58" d="M24.02 14.95l104-2 48 107 41-83 84 1-83 175 83 191h-72l-53-109-61 134h-96l109-217-104-197z"/><path class="cl59" d="M25.02 14.95h64l-2 41 34 32 2 49 32 27 10 49 37 28 4 50 36 29 5 46 30 38h-48l-204-389zM302.02 37.95l-84 175-26-58 30-33 3-47 41-37h36z"/><path class="cl59" d="M115.02 428.95l63-132-31-65-11 65-41 45-11 52-30 35h61z"/><path class="cl60" d="M24.02 14.95l205 389h22l-217-389h-10zM302.02 37.95l-84 175-4-9 80-166h8z"/><path class="cl60" d="M115.02 428.95l65-134-7-10-71 144h13z"/></g></g></g></g><g id="s20-8603" transform="translate(20, 8603.0)"><g transform="translate(-0.0, -0.0)"><defs><style>.cl61 {
    fill: #fff
    }
.cl62 {
    fill: #ed3a14
    }
.cl63 {
    fill: #2e72ac
    }
.cl64 {
    fill: #002a8b
    }
.cl65 {
    fill: #001669
    }
.cl66 {
    fill: #f6e778
    }
.cl67 {
    fill: #f7bdb6
    }</style></defs><title>XCard</title><g data-name="Layer 2" id="uid_81"><g data-name="Layer 48" id="uid_82"><rect class="cl61" height="630" rx="18.14" ry="18.14" width="420"/><rect class="cl62" height="589" rx="12" ry="12" width="376" x="22" y="20"/><path class="cl63" d="M69 98l104-2 48 107 41-83 84 1-83 175 83 191h-72l-53-109-61 134H64l109-217L69 98z"/><path class="cl64" d="M70 98h64l-2 41 34 32 2 49 32 27 10 49 37 28 4 50 36 29 5 46 30 38h-48L70 98zM347 121l-84 175-26-58 30-33 3-47 41-37h36z"/><path class="cl64" d="M160 512l63-132-31-65-11 65-41 45-11 52-30 35h61z"/><path class="cl65" d="M69 98l205 389h22L79 98H69zM347 121l-84 175-4-9 80-166h8z"/><path class="cl65" d="M160 512l65-134-7-10-71 144h13z"/><path class="cl66" d="M293 260s20-16 28-31c10-21 8-41 26-41 7 2 27 17 4 51-24 25-58 21-58 21z"/><path class="cl67" d="M293 260s55-10 54-72c7 2 27 17 4 51-24 25-58 21-58 21zM287 285s14.62-5.79 26-2c12 4 25 12 34 19 20 21 18-6 15-7-5-7-13-16-27-20-36-7-48 10-48 10z"/><path class="cl66" d="M287 285s14.62-5.79 26-2c12 4 25 12 34 19 7.5 7.87 11.91 9 14.33 7.28C333 260 287 285 287 285zM287 300s30 36 35 57c3 17 42 27 31-12-18-42-66-45-66-45z"/><path class="cl67" d="M287 300s62 46 61 70.84c5.91-2.73 9.33-10.49 5-25.84-18-42-66-45-66-45z"/><path class="cl66" d="M131.89 272s-20-16-28-31c-10-21-8-41-26-41-7 2-27 17-4 51 24 25 58 21 58 21z"/><path class="cl67" d="M131.89 272s-55-10-54-72c-7 2-27 17-4 51 24 25 58 21 58 21zM137.89 297s-14.62-5.79-26-2c-12 4-25 12-34 19-20 21-18-6-15-7 5-7 13-16 27-20 36-7 48 10 48 10z"/><path class="cl66" d="M137.89 297s-14.62-5.79-26-2c-12 4-25 12-34 19-7.5 7.87-11.91 9-14.33 7.28C91.89 272 137.89 297 137.89 297zM137.89 312s-30 36-35 57c-3 17-42 27-31-12 18-42 66-45 66-45z"/><path class="cl67" d="M137.89 312s-62 46-61 70.84c-5.91-2.73-9.33-10.49-5-25.84 18-42 66-45 66-45z"/><circle class="cl66" cx="359.5" cy="169.5" r="5.5"/><circle class="cl66" cx="372" cy="138" r="8"/><circle class="cl66" cx="377" cy="107" r="8"/><path class="cl67" d="M358.59 175.34a5.5 5.5 0 0 1 1.75-10.86c-.34 5.01.02 3.04-1.75 10.86zM370.65 145.54a8 8 0 0 1 2.6-15.79zM374.79 114.76a8 8 0 1 1 4.14-15.45z"/><circle class="cl66" cx="64.47" cy="167.5" r="5.5"/><circle class="cl66" cx="51.97" cy="136" r="8"/><circle class="cl66" cx="46.97" cy="105" r="8"/><path class="cl67" d="M65.38 173.34a5.5 5.5 0 1 0-1.75-10.86c.3 5.01-.02 3.04 1.75 10.86zM53.32 143.54a8 8 0 0 0-2.6-15.79zM49.17 112.76A8 8 0 0 0 45 97.31z"/><circle class="cl66" cx="350.5" cy="396.5" r="5.5"/><circle class="cl66" cx="363" cy="428" r="8"/><circle class="cl66" cx="368" cy="459" r="8"/><path class="cl67" d="M349.59 391a5.5 5.5 0 1 0 1.75 10.86c-.34-5.02.02-3.04-1.75-10.86zM361.65 420.46a8 8 0 0 0 2.6 15.79zM365.79 451.24a8 8 0 1 0 4.14 15.45z"/><circle class="cl66" cx="63.5" cy="418.5" r="5.5"/><circle class="cl66" cx="51" cy="450" r="8"/><circle class="cl66" cx="46" cy="481" r="8"/><path class="cl67" d="M64.41 412.66a5.5 5.5 0 1 1-1.75 10.86c.34-5.01-.02-3.04 1.75-10.86zM48.21 473.24a8 8 0 1 1-4.14 15.45z"/><circle class="cl67" cx="123" cy="63" r="7"/><circle class="cl67" cx="144.5" cy="68.5" r="4.5"/><circle class="cl67" cx="306" cy="68" r="7"/><circle class="cl67" cx="284.5" cy="73.5" r="4.5"/><circle class="cl67" cx="225" cy="141" r="5"/><circle class="cl67" cx="224.5" cy="116.5" r="3.5"/><path class="cl67" d="M224 105V89c-14-32-69-47-69-47s45 19 69 63zM224 105V89c14-32 69-47 69-47s-45 19-69 63zM106 42c-20-7-30 10-32 12s-5.87 16.34 10 10c11-8 5-11 22-22zM326.09 42c20-7 30 10 32 12s5.87 16.34-10 10c-11-8-5-11-22-22z"/><circle class="cl67" cx="135" cy="41" r="3"/><circle class="cl67" cx="120" cy="40" r="2"/><circle class="cl67" cx="303.5" cy="40.5" r="2.5"/><circle class="cl67" cx="317" cy="41" r="2" transform="rotate(-57.65 317.03 41)"/><circle class="cl67" cx="120" cy="547" r="7"/><circle class="cl67" cx="141.5" cy="541.5" r="4.5"/><circle class="cl67" cx="303" cy="542" r="7"/><circle class="cl67" cx="281.5" cy="536.5" r="4.5"/><path class="cl67" d="M221 505v16c-14 32-69 47-69 47s45-19 69-63zM221 505v16c14 32 69 47 69 47s-45-19-69-63zM103 568c-20 7-30-10-32-12s-5.87-16.34 10-10c11 8 5 11 22 22zM323.09 568c20 7 30-10 32-12s5.87-16.34-10-10c-11 8-5 11-22 22z"/><circle class="cl67" cx="132" cy="569" r="3"/><circle class="cl67" cx="117" cy="570" r="2"/><circle class="cl67" cx="300.5" cy="569.5" r="2.5"/><circle class="cl67" cx="314" cy="569" r="2" transform="rotate(-32.35 313.93 568.94)"/><path class="cl67" d="M51.57 442a8.37 8.37 0 0 1-2.67 16.53c.47-7.63-.02-4.63 2.67-16.53z"/></g></g></g></g><g id="s20-9253" transform="translate(20, 9253.0)"><g transform="translate(-0.0, -0.0)"><defs><style>.cl68 {
    fill: none
    }
.cl69 {
    fill: #3c0e04
    }
.cl70 {
    fill: #fffdba
    }
.cl71 {
    clip-path: url(#uid_83)
    }
.cl72 {
    fill: #c5935b
    }
.cl73 {
    fill: #b39f86
    }</style><clipPath id="uid_83" transform="translate(-225.41 -629.49)"><path class="cl68" d="M426 680c-21-30-52-6-63 0-32 28-57 29-76 44s-45 53-18 92c30.25 43.7 84 33 128-9s50-97 29-127z"/></clipPath></defs><title>YellowBean</title><g data-name="Layer 2" id="uid_84"><g data-name="Layer 34" id="uid_85"><circle class="cl69" cx="125.1" cy="125.1" r="125.1"/><path class="cl70" d="M426 680c-21-30-52-6-63 0-32 28-57 29-76 44s-45 53-18 92c30.25 43.7 84 33 128-9s50-97 29-127z" transform="translate(-225.41 -629.49)"/><g class="cl71"><ellipse class="cl72" cx="326" cy="695.5" rx="37" ry="26.5" transform="rotate(-34.23 -808.81 746.83)"/><path class="cl73" d="M287 844s5-19 27-35 54-16 71-35 13 12-23 27-67 51-67 51zM417 660c-2.44-3.92-65.62 54.79-55 49 9.56-5.21 66.19-49.12 67-44zM419 714c7-11-30 31-69 54-22 23 22-9 35-13s34-36 34-41z" transform="translate(-225.41 -629.49)"/><ellipse class="cl73" cx="315.3" cy="764.21" rx="8.55" ry="6.01" transform="rotate(-36.66 -747.48 789.62)"/><ellipse class="cl73" cx="299.5" cy="796" rx="12.5" ry="10" transform="rotate(-36.66 -763.28 821.4)"/><circle class="cl72" cx="-225.41" cy="-629.49"/></g></g></g></g></g><g id="s20-9524" transform="translate(20, 9524.0)"><g transform="translate(-0.0, -0.0)"><title>email</title><g fill="none" fill-rule="evenodd"><path d="M75.58 80A4.41 4.41 0 0 0 80 75.59V4.42A4.42 4.42 0 0 0 75.58 0H4.42A4.42 4.42 0 0 0 0 4.42v71.17A4.42 4.42 0 0 0 4.42 80h71.16z" fill="#738D9F"/><path d="M59.76 19.8H19.97a4.93 4.93 0 0 0-4.94 4.92L15 54.25a4.95 4.95 0 0 0 4.97 4.92h39.8c2.74 0 4.97-2.2 4.97-4.92V24.72a4.95 4.95 0 0 0-4.98-4.93zm0 9.84l-19.9 12.3-19.89-12.3v-4.92l19.9 12.3 19.9-12.3v4.92z" fill="#FFF"/></g></g></g><g id="s20-9624" transform="translate(20, 9624.0)"><g transform="translate(-0.0, -0.0)"><title>fb</title><g fill="none" fill-rule="evenodd"><path d="M75.58 80A4.41 4.41 0 0 0 80 75.59V4.42A4.42 4.42 0 0 0 75.58 0H4.42A4.42 4.42 0 0 0 0 4.42v71.17A4.42 4.42 0 0 0 4.42 80h71.16z" fill="#3D5A98"/><path d="M55.22 80V49.66h10.32l1.54-12.14H55.22v-7.76c0-3.52.96-5.91 5.93-5.91h6.35V12.97a83.6 83.6 0 0 0-9.25-.48c-9.14 0-15.4 5.66-15.4 16.06v8.96H32.5v12.14h10.34V80h12.38z" fill="#FFF"/></g></g></g><g id="s20-9724" transform="translate(20, 9724.0)"><g transform="translate(-0.0, -0.0)"><style>.cl74 {
    fill: #d2b31d
    }
.cl75 {
    fill: #f67464
    }
.cl76 {
    fill: #78a7c5
    }</style><ellipse class="cl74" cx="106.4" cy="314.8" rx="71.5" ry="53.1" transform="rotate(-47.89 106.44 314.8)"/><ellipse class="cl74" cx="309.5" cy="310.8" rx="53.1" ry="71.5" transform="rotate(-52.07 309.55 310.81)"/><ellipse class="cl74" cx="106.4" cy="116.8" rx="53.1" ry="71.5" transform="rotate(-42.11 106.44 116.8)"/><ellipse class="cl75" cx="98.4" cy="210.7" rx="98.4" ry="60.1"/><ellipse class="cl74" cx="309.5" cy="116.8" rx="71.5" ry="53.1" transform="rotate(-37.93 309.55 116.84)"/><ellipse class="cl75" cx="318.7" cy="210.7" rx="98.4" ry="60.1"/><ellipse class="cl76" cx="206.6" cy="98.4" rx="60.1" ry="98.4"/><ellipse class="cl76" cx="206.6" cy="323" rx="60.1" ry="98.4"/><ellipse class="cl74" cx="78.4" cy="276.5" rx="71.5" ry="53.1" transform="rotate(-29.18 78.38 276.54)"/><ellipse class="cl74" cx="272" cy="337.9" rx="53.1" ry="71.5" transform="rotate(-33.35 272 337.9)"/><ellipse class="cl74" cx="141.9" cy="89" rx="53.1" ry="71.5" transform="rotate(-23.39 141.91 89)"/><ellipse class="cl75" cx="104.2" cy="175.4" rx="60.1" ry="98.4" transform="rotate(-71.28 104.18 175.36)"/><ellipse class="cl74" cx="334.3" cy="154.2" rx="71.5" ry="53.1" transform="rotate(-19.21 334.3 154.2)"/><ellipse class="cl75" cx="312.8" cy="246.1" rx="60.1" ry="98.4" transform="rotate(-71.28 312.83 246.1)"/><ellipse class="cl76" cx="242.7" cy="103.7" rx="98.4" ry="60.1" transform="rotate(-71.28 242.69 103.7)"/><ellipse class="cl76" cx="170.6" cy="316.4" rx="98.4" ry="60.1" transform="rotate(-71.28 170.63 316.41)"/></g></g><g id="s20-10166" transform="translate(20, 10166.0)"><g transform="translate(-0.0, -0.0)"><defs><style>.cl77 {
    fill: #e7422a
    }
.cl78 {
    fill: #2f3d67
    }</style></defs><title>OpponentContainer</title><g data-name="Layer 2" id="uid_87"><g id="uid_88"><path class="cl77" d="M319 .24c2.07-.74 3 .27 2 2.25l-20.52 42.8a21 21 0 0 0-1.73 7.61v360a8.07 8.07 0 0 1-3.39 6.13l-44.22 27.75a7.56 7.56 0 0 1-6.9.21l-26-14.17a9.67 9.67 0 0 0-7.23-.43l-42.57 17a10.19 10.19 0 0 1-7.29-.3l-30.84-15.42a9.58 9.58 0 0 0-7.23-.15L90.4 448.25a9.58 9.58 0 0 1-7.23-.15l-30.84-15.42a10.19 10.19 0 0 0-7.29-.3l-42.57 17c-2 .82-3-.17-2.15-2.19l19.87-46.64a23.61 23.61 0 0 0 1.58-7.68l1-353a7 7 0 0 1 3.62-5.73l44.75-21.51a9.24 9.24 0 0 1 7.18.06l22.85 11.41a9.64 9.64 0 0 0 7.23.16l28.69-12.75a9.46 9.46 0 0 1 7.21.21l21.9 11.33a9.73 9.73 0 0 0 7.24.29l30.63-12.9a10.08 10.08 0 0 1 7.28.2l29.81 14.5a10.93 10.93 0 0 0 7.36.4z"/><rect class="cl78" height="366" rx="12" ry="12" width="245" x="38.75" y="45.89"/></g></g></g></g><g id="s20-10636" transform="translate(20, 10636.0)"><g transform="translate(-0.0, -0.0)"><title>email</title><g fill="none" fill-rule="evenodd"><path d="M75.58 80A4.41 4.41 0 0 0 80 75.59V4.42A4.42 4.42 0 0 0 75.58 0H4.42A4.42 4.42 0 0 0 0 4.42v71.17A4.42 4.42 0 0 0 4.42 80h71.16z" fill="#738D9F"/><path d="M27.95 35.75H22.1v26h35.1v-26h-7.15" stroke="#FFF" stroke-linecap="round" stroke-linejoin="round" stroke-width="6.5"/><path d="M43.63 25.81V49.4a3.9 3.9 0 1 1-7.8 0V26.15l-1.56 1.55a3.9 3.9 0 1 1-5.51-5.51l8.38-8.38a3.9 3.9 0 0 1 5.51 0l8.3 8.3a3.9 3.9 0 1 1-5.5 5.52l-1.82-1.82z" fill="#FFF" fill-rule="nonzero"/></g></g></g><g id="s20-10736" transform="translate(20, 10736.0)"><g transform="translate(-0.0, -0.0)"><defs><style>.cl79 {
    fill: #f8ef20
    }</style></defs><title>Loteria_1</title><g data-name="Layer 2" id="uid_89"><g data-name="Layer 49" id="uid_90"><path class="cl79" d="M28.1 128.6V4.2Q28.1 0 48.4 0t20.3 4.2v98h30.8q3.6 0 5 9.4a72.65 72.65 0 0 1 .6 9.4 82.21 82.21 0 0 1-.6 9.8q-1.6 9.6-5.2 9.6H37.7a8.2 8.2 0 0 1-7-3.6 13.64 13.64 0 0 1-2.6-8.2zM63.5 342.4q-28.1 0-45.8-18.4T0 270.3q0-35.3 17.9-53.5t46.2-18.2q28.3 0 45.7 17.9t17.4 54.2q0 36.3-17.8 54t-45.9 17.7zm.1-105.4q-9.6 0-16.1 8.8T41 270.5q0 15.9 6.2 24.4t16.3 8.5q10.1 0 16.4-8.6t6.3-24.6q0-16-6.5-24.6T63.6 237zM83.6 537.2q0 4-19.8 4t-19.8-4V436.8H20q-3.4 0-4.8-9.2a67.84 67.84 0 0 1 0-18q1.4-9.2 4.8-9.2h87q3.4 0 4.8 9.2a67.79 67.79 0 0 1 0 18q-1.4 9.2-4.8 9.2H83.6zM89.3 656q3.8 0 3.8 14a64.65 64.65 0 0 1-.9 9.9q-.9 5.7-3.3 5.7H63.5v20h36.8q3.4 0 4.6 8.8a52 52 0 0 1 .6 8.1 66.6 66.6 0 0 1-1.2 11.1q-1.2 6.8-4 6.8H31.9q-7.6 0-7.6-6.2V605.6q0-5.2 4.6-5.2h71.6q4.2 0 4.2 17.7t-4.2 17.7h-37V656zM52.8 937.6q0 3.2-19 3.2-19.2 0-19.2-3V807.4q0-7 7.4-7h38.2q52.6 0 52.6 41a51.74 51.74 0 0 1-4.8 22.5A39.66 39.66 0 0 1 94.4 880l25.2 42q-1.6 4.8-10.4 11-12 8.6-19.8 8.6T77.8 936L59 892.2h-6.2zm0-101.8v30h1q19 0 19-15.8 0-7.2-3.7-10.7T57 835.8zM43.8 1106v-71.2H29.6q-3.4 0-4.8-8.6a46.63 46.63 0 0 1 0-17.2q1.4-8.6 4.8-8.6h67.2q3.4 0 4.8 8.6a62 62 0 0 1 0 17.2q-1.4 8.6-4.8 8.6H83.4v71.2h14q3.4 0 4.8 8.6a61.92 61.92 0 0 1 0 17.2q-1.4 8.6-4.8 8.6H30q-3.4 0-4.8-8.6a62 62 0 0 1 0-17.2q1.4-8.6 4.8-8.6zm6-111.4q-1.8 0-4.6-4-3.6-5.6-3.6-9.4t1.2-5q32.6-18 33.2-18 2 0 5 4.8 4.6 7 4.6 13.2a4.38 4.38 0 0 1-1 3.2q-34.4 15.2-34.8 15.2zM102.1 1340.8q-17.4 0-18.8-5.6l-6.6-25.8H44.9l-5.8 24.8q-1.2 6.2-19.2 6.2-9.6 0-14.2-1.1t-4.6-1.7l35.4-135.4q0-1.6 27.4-1.6t27.4 1.6l34.6 135.6q0 1.4-9.2 2.2t-14.6.8zM49.9 1284h21l-9-41.4h-1.2z"/></g></g></g></g><g id="s20-12097" transform="translate(20, 12097.0)"><g transform="translate(-0.0, -0.0)"><title>tw</title><g fill="none" fill-rule="evenodd"><path d="M75.58 80A4.41 4.41 0 0 0 80 75.59V4.42A4.42 4.42 0 0 0 75.58 0H4.42A4.42 4.42 0 0 0 0 4.42v71.17A4.42 4.42 0 0 0 4.42 80h71.16z" fill="#1DA1F2"/><path d="M30.72 60.32c18.87 0 29.2-15.63 29.2-29.19 0-.44 0-.89-.04-1.33 2.01-1.45 3.74-3.25 5.12-5.3a20.48 20.48 0 0 1-5.9 1.6 10.3 10.3 0 0 0 4.52-5.67 20.56 20.56 0 0 1-6.52 2.5 10.27 10.27 0 0 0-17.48 9.35 29.12 29.12 0 0 1-21.14-10.72 10.27 10.27 0 0 0 3.18 13.7A10.18 10.18 0 0 1 17 33.97v.13c0 4.89 3.44 9.1 8.23 10.06-1.51.41-3.1.47-4.63.17a10.27 10.27 0 0 0 9.58 7.13A20.58 20.58 0 0 1 15 55.7a29.04 29.04 0 0 0 15.72 4.6" fill="#FFF" fill-rule="nonzero"/></g></g></g></svg>